<svg xmlns="http://www.w3.org/2000/svg" viewBox="0 0 48 48"><defs><style>.cls-1{opacity:0.2;}.cls-2,.cls-3{fill:none;}.cls-3{stroke:#000;stroke-linecap:round;stroke-linejoin:round;stroke-width:2px;}</style></defs><g id="레이어_2" data-name="레이어 2"><g id="레이어_1-2" data-name="레이어 1"><g class="cls-1"><rect class="cls-2" width="48" height="48"/></g><path class="cls-3" d="M37.12,3H10.88a3,3,0,0,0-.43,0h0A1.71,1.71,0,0,0,9.1,4.11,1.87,1.87,0,0,0,9,4.7V33.88c0,1,0,.94,1.88,1.88l18,9a1.8,1.8,0,0,0,2.6-1.2,3,3,0,0,0,0-.31V35.67h5.62A1.88,1.88,0,0,0,39,33.8V4.87A1.88,1.88,0,0,0,37.12,3Z"/><path class="cls-3" d="M31.5,35.67V14.84a2,2,0,0,0-1.1-1.78L10.45,3"/></g></g></svg>