<svg xmlns="http://www.w3.org/2000/svg" viewBox="0 0 48 48"><defs><style>.cls-1{opacity:0.2;}.cls-2,.cls-3{fill:none;}.cls-3{stroke:#000;stroke-miterlimit:10;stroke-width:2px;}</style></defs><g id="레이어_2" data-name="레이어 2"><g id="레이어_1-2" data-name="레이어 1"><g class="cls-1"><rect class="cls-2" width="48" height="48"/></g><circle class="cls-3" cx="39" cy="40" r="4"/><circle class="cls-3" cx="24" cy="24" r="4"/><path d="M20,24a4,4,0,0,1,.55-2H4a2,2,0,0,0,0,4H20.55A4,4,0,0,1,20,24Z"/><path d="M44,22H27.45a3.91,3.91,0,0,1,0,4H44a2,2,0,0,0,0-4Z"/><circle class="cls-3" cx="9" cy="8" r="4"/><path d="M44,6H12.45a3.91,3.91,0,0,1,0,4H44a2,2,0,0,0,0-4Z"/><path d="M5,8a4,4,0,0,1,.55-2H4a2,2,0,0,0,0,4H5.55A4,4,0,0,1,5,8Z"/><circle class="cls-3" cx="39" cy="40" r="4"/><path d="M35,40a4,4,0,0,1,.55-2H4a2,2,0,0,0,0,4H35.55A4,4,0,0,1,35,40Z"/><path d="M44,38H42.45a3.91,3.91,0,0,1,0,4H44a2,2,0,0,0,0-4Z"/></g></g></svg>